#N canvas 1142 70 507 386 10;
#X obj 52 74 mrpeach/slipenc;
#X obj 52 100 list prepend send;
#X obj 52 122 list trim;
#X obj 52 151 iemnet/tcpsend;
#X msg 219 124 disconnect;
#X obj 159 175 list prepend set;
#X obj 159 197 list trim;
#X msg 299 199 98 99 219 221 97 98 99 10 192;
#X msg 275 169 192 97 98 99 219 220 97;
#X obj 114 288 metro 100;
#X floatatom 189 283 5 0 0 0 - - -;
#X obj 117 262 tgl 15 0 empty empty empty 17 7 0 10 -262144 -1 -1 0
1;
#X obj 108 344 until;
#X obj 110 321 f 1;
#X floatatom 178 323 5 0 0 0 - - -;
#X msg 213 72 connect localhost 2346;
#X msg 39 240 192 97 98 99 10 192;
#X msg 252 293 192 97 98;
#X msg 321 292 99 10 192;
#X msg 267 239 192 192 192;
#X msg 31 13 97 98 99 97 98 99 219 97 98 99 220 221 97 10;
#X msg 34 32 97 98 99 32 221 32 97 98 99 97 98 99 97 32 10;
#X connect 0 0 1 0;
#X connect 0 0 5 0;
#X connect 1 0 2 0;
#X connect 2 0 3 0;
#X connect 4 0 3 0;
#X connect 5 0 6 0;
#X connect 7 0 1 0;
#X connect 8 0 1 0;
#X connect 9 0 13 0;
#X connect 10 0 9 1;
#X connect 11 0 9 0;
#X connect 12 0 16 0;
#X connect 13 0 12 0;
#X connect 14 0 13 1;
#X connect 15 0 3 0;
#X connect 16 0 1 0;
#X connect 17 0 1 0;
#X connect 18 0 1 0;
#X connect 19 0 1 0;
#X connect 21 0 0 0;
