#N canvas 1139 61 545 602 10;
#X obj 52 74 mrpeach/slipenc;
#X obj 52 100 list prepend send;
#X obj 52 122 list trim;
#X msg 219 124 disconnect;
#X obj 42 402 list prepend set;
#X obj 42 424 list trim;
#X msg 299 199 98 99 219 221 97 98 99 10 192;
#X msg 275 169 192 97 98 99 219 220 97;
#X obj 117 323 metro 100;
#X floatatom 189 283 5 0 0 0 - - -;
#X obj 120 297 tgl 15 0 empty empty empty 17 7 0 10 -262144 -1 -1 0
1;
#X obj 111 379 until;
#X obj 113 356 f 1;
#X floatatom 178 323 5 0 0 0 - - -;
#X msg 213 72 connect localhost 2346;
#X msg 36 308 192 97 98 99 10 192;
#X msg 252 293 192 97 98;
#X msg 321 292 99 10 192;
#X msg 267 239 192 192 192;
#X msg 31 13 97 98 99 97 98 99 219 97 98 99 220 221 97 10;
#X msg 34 32 97 98 99 32 192 32 97 98 99 32 219 32 97 98 99 32 219
220 32 97 32 10;
#X obj 209 364 list split 10;
#X obj 244 398 list split 10;
#X msg 51 529 192 97 98 99 32 219 220 32 97 98;
#X obj 176 437 list prepend set;
#X obj 176 459 list trim;
#X msg 154 550 99 32 219 221 32 97 98 99 32 219;
#X obj 300 430 list prepend set;
#X obj 300 452 list trim;
#X msg 174 574 221 220 32 97 32 10 192;
#X obj 18 470 t a;
#X obj 52 151 iemnet/tcpclient;
#X obj 57 183 mrpeach/slipdec;
#X obj 59 213 list prepend set;
#X obj 59 235 list trim;
#X msg 57 266;
#X connect 0 0 1 0;
#X connect 0 0 21 0;
#X connect 1 0 2 0;
#X connect 2 0 31 0;
#X connect 3 0 31 0;
#X connect 4 0 5 0;
#X connect 6 0 1 0;
#X connect 7 0 1 0;
#X connect 8 0 12 0;
#X connect 9 0 8 1;
#X connect 10 0 8 0;
#X connect 11 0 15 0;
#X connect 12 0 11 0;
#X connect 13 0 12 1;
#X connect 14 0 31 0;
#X connect 15 0 1 0;
#X connect 16 0 1 0;
#X connect 17 0 1 0;
#X connect 18 0 1 0;
#X connect 19 0 0 0;
#X connect 20 0 0 0;
#X connect 21 0 4 0;
#X connect 21 1 22 0;
#X connect 22 0 24 0;
#X connect 22 1 27 0;
#X connect 23 0 30 0;
#X connect 24 0 25 0;
#X connect 26 0 30 0;
#X connect 27 0 28 0;
#X connect 29 0 30 0;
#X connect 30 0 1 0;
#X connect 31 0 32 0;
#X connect 32 0 33 0;
#X connect 33 0 34 0;
#X connect 34 0 35 0;
